# xmcd CD database file
#
# Track frame offsets:
#	150
#	22056
#	47574
#	67946
#	93269
#	112073
#	131539
#	152938
#	158637
#	171148
#	185141
#
# Disc length: 2811 seconds
#
# Revision: 0
# Processed by: cddbd v1.5.2PL0 Copyright (c) Steve Scherf et al.
# Submitted via: CDex 1.70beta2
#
DISCID=900af90b
DTITLE=Fessor - Fessor In Africa
DYEAR=2006
DGENRE=Jazz
TTITLE0=Ebbe Skammelsøn
TTITLE1=Go To Mali
TTITLE2=Hist Ved Vejen
TTITLE3=Little Yellow House
TTITLE4=Koulikoro
TTITLE5=Dexterdougou
TTITLE6=Simba
TTITLE7=Opening Night
TTITLE8=Red Room
TTITLE9=Jeg Gik Mig Ud En Sommerdag
TTITLE10=Sista
EXTD=YEAR: 2006
EXTT0=
EXTT1=
EXTT2=
EXTT3=
EXTT4=
EXTT5=
EXTT6=
EXTT7=
EXTT8=
EXTT9=
EXTT10=
PLAYORDER=
